<svg xmlns="http://www.w3.org/2000/svg" xmlns:svg="http://www.w3.org/2000/svg" id="svg2" width="200" height="200" version="1.1"><metadata id="metadata7"/><g id="layer1" transform="translate(-157.84358,-524.69522)"><path id="path2987" d="m 229.94314,669.26549 -36.08466,-36.08466 c -4.68653,-4.68653 -4.68653,-12.28468 0,-16.97121 l 36.08466,-36.08467 a 12.000453,12.000453 0 0 1 8.4856,-3.5148 l 74.91443,0 c 6.62761,0 12.00041,5.3728 12.00041,12.00041 l 0,72.16933 c 0,6.62761 -5.3728,12.00041 -12.00041,12.00041 l -74.91443,0 a 12.000453,12.000453 0 0 1 -8.4856,-3.51481 z m -13.45639,-53.05587 c -4.68653,4.68653 -4.68653,12.28468 0,16.97121 4.68652,4.68652 12.28467,4.68652 16.9712,0 4.68653,-4.68653 4.68653,-12.28468 0,-16.97121 -4.68653,-4.68652 -12.28468,-4.68652 -16.9712,0 z" style="fill:#fff;fill-opacity:1"/></g></svg>